. 
 
http://www.torrenting.com          :     Once & For all ;)


               www . Torrenting . Com 

(((((((((((((= Enjoy No RAR releases =))))))))))))))))))))


...................................NFO:....................................

.[img]http://img39.imageshack.us/img39/5874/qwertyuiopl.png[/img]


[color=blue][size=5]Undying.2010.DVDRip.XViD.AC3-5.1.SeT-CM8[/size][/color]


[size=4][color=blue]Seduced by the ghost of a Civil War soldier, Barbara Haughton creates a love that is undying. [/color][/size]



[url]http://www.imdb.com/title/tt1174739/[/url]


cast:
Robin Weigert   	... 	Barbara Haughton
Anthony Carrigan 	... 	Donovan / Elijah
Jay O. Sanders 	        ... 	Dr. Russel Lassiter
Sybil Temtchine 	... 	Rachel Braun
Wes Studi 	        ... 	Lt. Wascoe 



CM8 Doing It Right The First Time :D

Source: DVD Own


Complete name                    : Undying.2010.DVDRip.XViD.AC3-5.1.SeT.CM8.avi
Format                           : AVI
Format/Info                      : Audio Video Interleave
File size                        : 1.59 GiB
Duration                         : 1h 47mn
Overall bit rate                 : 2 111 Kbps

Video
ID                               : 0
Format                           : MPEG-4 Visual
Format profile                   : Advanced Simple@L5
Format settings, BVOP            : 2
Format settings, QPel            : Yes
Format settings, GMC             : No warppoints
Format settings, Matrix          : Default (H.263)
Muxing mode                      : Packed bitstream
Codec ID                         : XVID
Codec ID/Hint                    : XviD
Duration                         : 1h 47mn
Bit rate                         : 1 909 Kbps
Width                            : 720 pixels
Height                           : 400 pixels
Display aspect ratio             : 16:9
Frame rate                       : 29.970 fps
Original frame rate              : 25.000 fps
Color space                      : YUV
Chroma subsampling               : 4:2:0
Bit depth                        : 8 bits
Scan type                        : Interlaced
Scan order                       : Top Field First
Compression mode                 : Lossy
Bits/(Pixel*Frame)               : 0.221
Stream size                      : 1.43 GiB (90%)
Writing library                  : XviD 58

Audio
ID                               : 1
Format                           : AC-3
Format/Info                      : Audio Coding 3
Mode extension                   : CM (complete main)
Codec ID                         : 2000
Duration                         : 1h 47mn
Bit rate mode                    : Constant
Bit rate                         : 192 Kbps
Channel(s)                       : 6 channels
Channel positions                : Front: L C R, Side: L R, LFE
Sampling rate                    : 48.0 KHz
Bit depth                        : 16 bits
Compression mode                 : Lossy
Stream size                      : 148 MiB (9%)
Alignment                        : Aligned on interleaves
Interleave, duration             : 33 ms (1.00 video frame)

[img]http://img208.imageshack.us/img208/9720/rfdxcvbnjhgt.png[/img]
[img]http://img521.imageshack.us/img521/993/ujmnbhy.png[/img]
[img]http://img560.imageshack.us/img560/9600/plkjkmnhji.png[/img]
[img]http://img443.imageshack.us/img443/3639/qazxswed.png[/img]
[img]http://img847.imageshack.us/img847/442/zxcvbnmm.png[/img]
[img]http://img638.imageshack.us/img638/427/asdfghjklj.png[/img]
[img]http://img31.imageshack.us/img31/1443/qwertyuiikjm.png[/img]

notes
very happy with this, did usual stuff. thank you for all your kind words and Enjoy ;)

[size=4][color=blue]LOOKING FOR ANYTHING YOU WANT TO LOOK AND SOUND BETTER

CM8@hushmail.com[/color][/size]


big shout out to my Homies Mr Hive , Sir Unevano, Super TED, Pinny and Mr Simmo.
Greets to SAiNTS,DTRG,SANTi,BDK, THC,SAFC, AMIABLE and mSD
 all the other Ledgends out there Past and Present..